<svg width="239" height="80" viewBox="0 0 239 80" fill="none" xmlns="http://www.w3.org/2000/svg">
<path d="M132.29 20.6304H126.49C126.264 20.6304 126.048 20.7199 125.888 20.8793C125.729 21.0387 125.64 21.2549 125.64 21.4804V25.1504C124.578 23.9671 123.34 22.9551 121.97 22.1504C119.448 20.711 116.583 19.9818 113.68 20.0404C110.57 20.0038 107.509 20.8089 104.82 22.3704C102.177 23.9327 100.023 26.201 98.5995 28.9204C97.0574 31.9209 96.2843 35.2574 96.3495 38.6304C96.2975 42.0104 97.0661 45.3526 98.5895 48.3704C99.9868 51.1589 102.129 53.5057 104.78 55.1504C107.403 56.7451 110.42 57.573 113.49 57.5404C116.427 57.603 119.327 56.8668 121.88 55.4104C123.277 54.6063 124.545 53.5948 125.64 52.4104V72.4904C125.64 72.7158 125.729 72.932 125.888 73.0914C126.048 73.2508 126.264 73.3404 126.49 73.3404H132.29C132.515 73.3404 132.731 73.2508 132.891 73.0914C133.05 72.932 133.14 72.7158 133.14 72.4904V21.4904C133.141 21.3779 133.12 21.2663 133.078 21.162C133.036 21.0577 132.973 20.9629 132.894 20.8829C132.815 20.8029 132.721 20.7394 132.617 20.696C132.513 20.6527 132.402 20.6304 132.29 20.6304ZM125.63 38.7204C125.684 40.9517 125.182 43.1614 124.17 45.1504C123.276 46.8794 121.91 48.3187 120.23 49.3004C118.563 50.2582 116.672 50.7552 114.75 50.7404C112.834 50.7629 110.948 50.269 109.29 49.3104C107.629 48.3156 106.281 46.8742 105.4 45.1504C104.373 43.1371 103.864 40.8996 103.92 38.6404C103.867 36.4134 104.376 34.2091 105.4 32.2304C106.29 30.5342 107.638 29.1209 109.29 28.1504C110.961 27.2223 112.842 26.7352 114.755 26.7352C116.667 26.7352 118.548 27.2223 120.22 28.1504C121.89 29.1316 123.254 30.5581 124.16 32.2704C125.188 34.2616 125.697 36.4801 125.64 38.7204H125.63Z" fill="#009999"/>
<path d="M174.419 20.6306H168.609C168.384 20.6306 168.168 20.7202 168.008 20.8796C167.849 21.039 167.759 21.2552 167.759 21.4806V25.1506C166.691 23.9591 165.438 22.9463 164.049 22.1506C161.513 20.7229 158.639 20.0044 155.729 20.0706C152.64 20.0418 149.6 20.8468 146.929 22.4006C144.287 23.9629 142.133 26.2312 140.709 28.9506C139.169 31.9515 138.399 35.2883 138.469 38.6606C138.411 42.0413 139.18 45.3849 140.709 48.4006C142.104 51.1797 144.244 53.5167 146.889 55.1506C149.536 56.7495 152.577 57.5773 155.669 57.5406C158.571 57.6002 161.436 56.8747 163.959 55.4406C165.384 54.6173 166.667 53.5707 167.759 52.3406V56.1306C167.759 56.356 167.849 56.5722 168.008 56.7316C168.168 56.891 168.384 56.9806 168.609 56.9806H174.419C174.645 56.9806 174.861 56.891 175.02 56.7316C175.18 56.5722 175.269 56.356 175.269 56.1306V21.4806C175.269 21.2552 175.18 21.039 175.02 20.8796C174.861 20.7202 174.645 20.6306 174.419 20.6306ZM167.759 38.7206C167.81 40.9527 167.305 43.1624 166.289 45.1506C165.399 46.8819 164.032 48.322 162.349 49.3006C160.686 50.2571 158.798 50.7541 156.879 50.7406C154.966 50.7578 153.084 50.2605 151.429 49.3006C149.759 48.313 148.4 46.8747 147.509 45.1506C146.486 43.1364 145.981 40.899 146.039 38.6406C145.984 36.4145 146.49 34.2102 147.509 32.2306C148.406 30.5324 149.761 29.1191 151.419 28.1506C153.089 27.2224 154.969 26.7354 156.879 26.7354C158.79 26.7354 160.669 27.2224 162.339 28.1506C164.019 29.1355 165.388 30.5738 166.289 32.3006C167.308 34.2843 167.813 36.4914 167.759 38.7206Z" fill="#009999"/>
<path d="M198.869 20.63H192.459V19.02C192.459 17.02 192.889 15.56 193.749 14.74C194.609 13.92 196.209 13.49 198.489 13.49C198.715 13.49 198.931 13.4004 199.09 13.241C199.25 13.0816 199.339 12.8654 199.339 12.64V7.85C199.339 7.62457 199.25 7.40837 199.09 7.24896C198.931 7.08956 198.715 7 198.489 7C193.879 7 190.489 8 188.299 9.9C186.109 11.8 185.019 14.9 185.019 19.02V20.63H181.379C181.154 20.63 180.938 20.7196 180.778 20.879C180.619 21.0384 180.529 21.2546 180.529 21.48V26.22C180.529 26.3316 180.551 26.4422 180.594 26.5453C180.637 26.6484 180.699 26.7421 180.778 26.821C180.857 26.9 180.951 26.9626 181.054 27.0053C181.157 27.048 181.268 27.07 181.379 27.07H185.019V56.07C185.019 56.2954 185.109 56.5116 185.268 56.671C185.428 56.8304 185.644 56.92 185.869 56.92H191.609C191.835 56.92 192.051 56.8304 192.21 56.671C192.37 56.5116 192.459 56.2954 192.459 56.07V27.07H198.869C198.981 27.07 199.091 27.048 199.195 27.0053C199.298 26.9626 199.391 26.9 199.47 26.821C199.549 26.7421 199.612 26.6484 199.655 26.5453C199.697 26.4422 199.719 26.3316 199.719 26.22V21.48C199.719 21.2546 199.63 21.0384 199.47 20.879C199.311 20.7196 199.095 20.63 198.869 20.63Z" fill="#009999"/>
<path d="M237.979 20.6305H232.169C232.058 20.6305 231.947 20.6524 231.844 20.6952C231.741 20.7379 231.647 20.8005 231.568 20.8794C231.489 20.9583 231.427 21.052 231.384 21.1552C231.341 21.2583 231.319 21.3688 231.319 21.4805V25.1505C230.25 23.9589 228.998 22.9461 227.609 22.1505C225.074 20.7193 222.2 19.9973 219.289 20.0605C216.203 20.03 213.165 20.8351 210.499 22.3905C207.859 23.9525 205.708 26.2211 204.289 28.9405C202.75 31.9418 201.98 35.2783 202.049 38.6505C201.992 42.031 202.761 45.3744 204.289 48.3905C205.683 51.1665 207.814 53.5053 210.449 55.1505C213.096 56.7494 216.137 57.5771 219.229 57.5405C222.132 57.6026 224.996 56.8768 227.519 55.4405C228.944 54.6172 230.227 53.5705 231.319 52.3405V56.1305C231.319 56.3559 231.409 56.5721 231.568 56.7315C231.728 56.8909 231.944 56.9805 232.169 56.9805H237.979C238.091 56.9805 238.201 56.9585 238.304 56.9157C238.408 56.873 238.501 56.8104 238.58 56.7315C238.659 56.6526 238.722 56.5589 238.764 56.4557C238.807 56.3526 238.829 56.2421 238.829 56.1305V21.4805C238.829 21.3688 238.807 21.2583 238.764 21.1552C238.722 21.052 238.659 20.9583 238.58 20.8794C238.501 20.8005 238.408 20.7379 238.304 20.6952C238.201 20.6524 238.091 20.6305 237.979 20.6305ZM231.289 38.7205C231.346 40.9508 230.848 43.1604 229.839 45.1505C228.95 46.8788 227.586 48.3182 225.909 49.3005C224.242 50.2569 222.351 50.7538 220.429 50.7404C218.516 50.7577 216.634 50.2603 214.979 49.3005C213.315 48.3111 211.963 46.8728 211.079 45.1505C210.053 43.1371 209.544 40.8997 209.599 38.6405C209.549 36.4148 210.054 34.2117 211.069 32.2305C211.966 30.5322 213.321 29.1189 214.979 28.1505C216.651 27.2223 218.532 26.7353 220.444 26.7353C222.356 26.7353 224.237 27.2223 225.909 28.1505C227.577 29.1342 228.941 30.5601 229.849 32.2705C230.859 34.2669 231.354 36.4841 231.289 38.7205Z" fill="#009999"/>
<path d="M44.0391 40.1206L55.8791 28.2806C56.1939 27.9721 56.4369 27.598 56.5907 27.1849C56.7445 26.7718 56.8054 26.3299 56.7691 25.8906C56.7377 25.4503 56.6125 25.0218 56.4021 24.6338C56.1917 24.2458 55.9009 23.9072 55.5491 23.6406C54.9261 23.2038 54.1675 23.004 53.4102 23.0774C52.6528 23.1507 51.9467 23.4923 51.4191 24.0406L39.6891 35.7706L28.0291 24.1106C27.4987 23.5802 26.7792 23.2822 26.0291 23.2822C25.279 23.2822 24.5595 23.5802 24.0291 24.1106C23.4987 24.641 23.2007 25.3605 23.2007 26.1106C23.2007 26.8607 23.4987 27.5802 24.0291 28.1106L35.6991 39.7606L23.9491 51.5106C23.3804 52.0613 23.0384 52.8049 22.9902 53.5951C22.9421 54.3853 23.1914 55.1649 23.6891 55.7806C23.9664 56.1018 24.3069 56.3625 24.6893 56.5464C25.0718 56.7303 25.488 56.8334 25.9121 56.8494C26.3362 56.8653 26.759 56.7937 27.1542 56.6391C27.5494 56.4845 27.9085 56.2501 28.2091 55.9506L40.0491 44.1106L51.7091 55.7806C52.2395 56.311 52.959 56.609 53.7091 56.609C54.4592 56.609 55.1787 56.311 55.7091 55.7806C56.2395 55.2502 56.5375 54.5307 56.5375 53.7806C56.5375 53.0305 56.2395 52.311 55.7091 51.7806L44.0391 40.1206Z" fill="#009999"/>
<path d="M59.8003 6.09038C62.5563 6.09038 65.2503 6.90787 67.5415 8.4394C69.8327 9.97094 71.6181 12.1477 72.6719 14.6942C73.7256 17.2408 74.0003 20.0426 73.4612 22.7453C72.9221 25.448 71.5934 27.9301 69.6432 29.8774C67.6931 31.8248 65.2091 33.1499 62.5057 33.6851C59.8022 34.2204 57.0007 33.9417 54.4557 32.8843C51.9107 31.8269 49.7365 30.0383 48.2082 27.7449C46.68 25.4515 45.8664 22.7563 45.8703 20.0004C45.8756 16.3075 47.3449 12.7675 49.9562 10.1562C52.5674 7.54499 56.1075 6.07567 59.8003 6.07038V6.09038ZM59.8003 0.0703753C55.8589 0.0802661 52.0087 1.25745 48.7356 3.45338C45.4625 5.64931 42.9132 8.76557 41.4094 12.4089C39.9057 16.0522 39.5148 20.0594 40.2862 23.9246C41.0575 27.7899 42.9566 31.34 45.7436 34.1271C48.5307 36.9141 52.0808 38.8132 55.9461 39.5845C59.8113 40.3559 63.8185 39.965 67.4618 38.4613C71.1051 36.9575 74.2214 34.4082 76.4173 31.1351C78.6133 27.862 79.7904 24.0118 79.8003 20.0704C79.8069 17.4421 79.2941 14.8384 78.2914 12.4089C77.2886 9.97942 75.8157 7.77202 73.9572 5.91353C72.0987 4.05505 69.8913 2.58211 67.4618 1.57935C65.0323 0.576593 62.4286 0.0637798 59.8003 0.0703753Z" fill="#FF9933"/>
<path d="M19.9599 46C22.7167 46 25.4115 46.818 27.7032 48.3504C29.9948 49.8829 31.7802 52.0608 32.8334 54.6085C33.8865 57.1562 34.16 59.9591 33.6193 62.6624C33.0785 65.3656 31.7479 67.8476 29.7957 69.7942C27.8436 71.7407 25.3577 73.0642 22.653 73.5972C19.9482 74.1302 17.1461 73.8486 14.6014 72.7881C12.0567 71.7277 9.88393 69.936 8.35811 67.64C6.83228 65.3439 6.02203 62.6468 6.02994 59.89C6.04579 56.2041 7.51978 52.6743 10.1299 50.0717C12.74 47.4691 16.274 46.0053 19.9599 46ZM19.9599 40C16.0159 39.998 12.1598 41.1652 8.87881 43.3539C5.59783 45.5426 3.03922 48.6547 1.52626 52.297C0.013299 55.9393 -0.386114 59.9484 0.378488 63.8176C1.14309 67.6868 3.03739 71.2425 5.82205 74.0356C8.60671 76.8286 12.1568 78.7336 16.0237 79.5098C19.8905 80.286 23.9008 79.8987 27.5476 78.3967C31.1944 76.8947 34.3142 74.3454 36.5128 71.071C38.7114 67.7966 39.8901 63.944 39.8999 60C39.9065 57.3768 39.3957 54.778 38.3967 52.3524C37.3977 49.9269 35.9301 47.7221 34.078 45.8644C32.2258 44.0067 30.0255 42.5325 27.603 41.5262C25.1804 40.52 22.5832 40.0013 19.9599 40Z" fill="#FF9933"/>
<path d="M19.96 6.09C22.7159 6.09 25.4099 6.90749 27.7011 8.43903C29.9923 9.97056 31.7778 12.1473 32.8315 14.6938C33.8852 17.2404 34.1599 20.0423 33.6208 22.745C33.0817 25.4477 31.753 27.9297 29.8029 29.8771C27.8527 31.8244 25.3688 33.1495 22.6653 33.6848C19.9618 34.22 17.1603 33.9413 14.6153 32.8839C12.0703 31.8265 9.8961 30.0379 8.36786 27.7445C6.83962 25.4511 6.02601 22.7559 6.02997 20C6.04054 16.3106 7.5122 12.7757 10.1229 10.1688C12.7335 7.56185 16.2706 6.09527 19.96 6.09ZM19.96 0.0900002C16.0121 0.0880292 12.1524 1.25741 8.86947 3.45012C5.58654 5.64282 3.02796 8.76026 1.51764 12.4078C0.00732398 16.0553 -0.386837 20.069 0.385056 23.9407C1.15695 27.8123 3.06019 31.3679 5.85385 34.1574C8.64751 36.9469 12.206 38.8447 16.0788 39.6108C19.9516 40.3769 23.9647 39.9767 27.61 38.4608C31.2552 36.945 34.3688 34.3818 36.5566 31.0955C38.7443 27.8093 39.9079 23.9479 39.9 20C39.9065 17.3768 39.3957 14.778 38.3967 12.3524C37.3977 9.92685 35.9301 7.72212 34.078 5.86443C32.2259 4.00673 30.0255 2.53254 27.603 1.52625C25.1804 0.51995 22.5832 0.00130667 19.96 0V0.0900002Z" fill="#FF9933"/>
<path d="M59.8003 46.0001C62.5554 46.0001 65.2487 46.817 67.5394 48.3477C69.8302 49.8783 71.6156 52.0539 72.67 54.5993C73.7243 57.1447 74.0002 59.9455 73.4627 62.6477C72.9252 65.3498 71.5985 67.8319 69.6503 69.7801C67.7022 71.7282 65.2201 73.0549 62.5179 73.5924C59.8158 74.1299 57.0149 73.854 54.4696 72.7997C51.9242 71.7454 49.7486 69.9599 48.218 67.6692C46.6873 65.3784 45.8703 62.6852 45.8703 59.9301C45.8756 56.2372 47.3449 52.6971 49.9562 50.0859C52.5674 47.4747 56.1075 46.0054 59.8003 46.0001ZM59.8003 40.0001C55.8589 40.01 52.0087 41.1871 48.7356 43.3831C45.4625 45.579 42.9132 48.6953 41.4094 52.3386C39.9057 55.9819 39.5148 59.9891 40.2862 63.8543C41.0575 67.7196 42.9566 71.2697 45.7436 74.0568C48.5307 76.8438 52.0808 78.7429 55.9461 79.5142C59.8113 80.2856 63.8185 79.8947 67.4618 78.391C71.1051 76.8872 74.2214 74.3379 76.4173 71.0648C78.6133 67.7917 79.7904 63.9415 79.8003 60.0001C79.8069 57.3718 79.2941 54.7681 78.2914 52.3386C77.2886 49.9091 75.8157 47.7017 73.9572 45.8432C72.0987 43.9847 69.8913 42.5118 67.4618 41.509C65.0323 40.5063 62.4286 39.9935 59.8003 40.0001Z" fill="#FF9933"/>
</svg>
