<svg width="34" height="34" viewBox="0 0 34 34" fill="none" xmlns="http://www.w3.org/2000/svg">
<path d="M25.2972 2.55383C26.4689 2.55299 27.6145 2.89966 28.5891 3.55C29.5637 4.20034 30.3236 5.12512 30.7725 6.20737C31.2215 7.28961 31.3394 8.4807 31.1113 9.62997C30.8833 10.7792 30.3195 11.835 29.4913 12.6638C28.6631 13.4926 27.6077 14.0572 26.4586 14.2861C25.3095 14.515 24.1183 14.3979 23.0357 13.9497C21.9531 13.5015 21.0278 12.7424 20.3768 11.7682C19.7257 10.7941 19.3782 9.64869 19.3782 8.47702C19.385 6.90889 20.0106 5.40683 21.119 4.29759C22.2275 3.18835 23.7291 2.56166 25.2972 2.55383ZM25.2972 0.00439453C23.6206 0.00439453 21.9817 0.501554 20.5877 1.433C19.1937 2.36446 18.1072 3.68836 17.4656 5.23731C16.824 6.78625 16.6561 8.49067 16.9832 10.135C17.3103 11.7794 18.1176 13.2898 19.3031 14.4753C20.4886 15.6608 21.9991 16.4682 23.6434 16.7953C25.2878 17.1223 26.9922 16.9545 28.5411 16.3129C30.0901 15.6713 31.414 14.5848 32.3454 13.1908C33.2769 11.7967 33.7741 10.1578 33.7741 8.48127C33.7741 6.23306 32.881 4.07693 31.2912 2.48721C29.7015 0.897491 27.5454 0.00439453 25.2972 0.00439453Z" fill="#FF9933"/>
<path d="M8.48112 19.3759C9.6516 19.3768 10.7955 19.7246 11.7683 20.3755C12.7412 21.0264 13.4991 21.9511 13.9465 23.0327C14.3938 24.1144 14.5104 25.3043 14.2816 26.4522C14.0527 27.6001 13.4886 28.6544 12.6607 29.4817C11.8327 30.3091 10.7781 30.8724 9.63004 31.1004C8.48199 31.3284 7.29211 31.211 6.21081 30.7629C5.12951 30.3147 4.20535 29.5561 3.55516 28.5828C2.90496 27.6096 2.55793 26.4654 2.55793 25.2949C2.56018 23.725 3.18509 22.2202 4.29554 21.1105C5.40599 20.0009 6.91128 19.3771 8.48112 19.3759ZM8.48112 16.8265C6.80401 16.8257 5.16434 17.3223 3.76958 18.2536C2.37483 19.185 1.28767 20.5091 0.645673 22.0584C0.00367698 23.6078 -0.164303 25.3128 0.162989 26.9577C0.49028 28.6025 1.29813 30.1133 2.48433 31.2989C3.67052 32.4845 5.18174 33.2916 6.82677 33.6181C8.47179 33.9446 10.1767 33.7757 11.7257 33.133C13.2748 32.4902 14.5984 31.4024 15.529 30.0071C16.4596 28.6119 16.9554 26.972 16.9537 25.2949C16.9526 23.0482 16.0596 20.8938 14.4709 19.3051C12.8822 17.7164 10.7279 16.8234 8.48112 16.8223V16.8265Z" fill="#FF9933"/>
<path d="M18.6607 16.9622L23.6916 11.9313C23.8247 11.7991 23.9277 11.6397 23.9936 11.464C24.0594 11.2883 24.0867 11.1005 24.0733 10.9134C24.06 10.7262 24.0065 10.5442 23.9164 10.3796C23.8263 10.215 23.7018 10.0718 23.5514 9.95973C23.2873 9.77241 22.9645 9.68649 22.6423 9.7177C22.32 9.74891 22.0197 9.89517 21.7965 10.1297L16.8123 15.1138L11.8579 10.1552C11.6301 9.94206 11.3284 9.82582 11.0164 9.83102C10.7045 9.83622 10.4068 9.96245 10.1862 10.1831C9.96559 10.4037 9.83936 10.7014 9.83416 11.0133C9.82896 11.3252 9.9452 11.627 10.1583 11.8548L15.117 16.8092L10.1243 21.8018C9.88299 22.0351 9.73779 22.3504 9.71734 22.6854C9.69689 23.0205 9.80268 23.351 10.0139 23.6119C10.131 23.7493 10.2753 23.8609 10.4377 23.9398C10.6001 24.0186 10.777 24.0631 10.9574 24.0703C11.1378 24.0774 11.3177 24.0472 11.4858 23.9815C11.654 23.9158 11.8067 23.816 11.9344 23.6884L16.9653 18.6575L21.9197 23.6119C22.0304 23.7248 22.1627 23.8142 22.3087 23.8748C22.4547 23.9354 22.6115 23.9659 22.7695 23.9646C23.0063 23.9636 23.2376 23.8927 23.4343 23.7607C23.6309 23.6288 23.7843 23.4417 23.875 23.223C23.9658 23.0043 23.99 22.7636 23.9445 22.5312C23.899 22.2988 23.7859 22.085 23.6193 21.9166L18.6607 16.9622Z" fill="#009999"/>
<path d="M8.48112 2.55368C9.65262 2.55368 10.7978 2.90107 11.7719 3.55192C12.7459 4.20277 13.5051 5.12784 13.9534 6.21017C14.4017 7.29249 14.519 8.48344 14.2905 9.63243C14.062 10.7814 13.4978 11.8368 12.6694 12.6652C11.8411 13.4936 10.7857 14.0577 9.63668 14.2862C8.4877 14.5148 7.29674 14.3975 6.21442 13.9492C5.1321 13.5009 4.20702 12.7417 3.55617 11.7676C2.90532 10.7936 2.55794 9.64837 2.55794 8.47687C2.55906 6.90629 3.18347 5.40036 4.29404 4.28979C5.40461 3.17922 6.91054 2.55481 8.48112 2.55368ZM8.48112 0.00424916C6.8042 0.0034088 5.16469 0.499961 3.77003 1.43109C2.37536 2.36222 1.2882 3.68608 0.646081 5.2352C0.00395993 6.78432 -0.164269 8.48908 0.162677 10.1338C0.489624 11.7786 1.29705 13.2894 2.48282 14.4752C3.66859 15.6609 5.17941 16.4684 6.82416 16.7953C8.46891 17.1223 10.1737 16.954 11.7228 16.3119C13.2719 15.6698 14.5958 14.5826 15.5269 13.188C16.458 11.7933 16.9546 10.1538 16.9537 8.47687C16.9537 6.2294 16.0612 4.07392 14.4724 2.48432C12.8836 0.89472 10.7286 0.00112655 8.48112 0V0.00424916Z" fill="#FF9933"/>
<path d="M25.2972 19.3756C26.4678 19.3756 27.6122 19.7227 28.5856 20.3731C29.5589 21.0235 30.3176 21.9479 30.7656 23.0295C31.2136 24.111 31.3308 25.3011 31.1024 26.4493C30.874 27.5974 30.3103 28.6521 29.4825 29.4799C28.6547 30.3076 27.6001 30.8714 26.4519 31.0998C25.3038 31.3281 24.1136 31.2109 23.0321 30.7629C21.9506 30.3149 21.0262 29.5563 20.3758 28.5829C19.7254 27.6096 19.3782 26.4652 19.3782 25.2945C19.3805 23.7254 20.0048 22.2212 21.1143 21.1117C22.2239 20.0022 23.7281 19.3779 25.2972 19.3756ZM25.2972 16.8262C23.6204 16.8262 21.9814 17.3234 20.5872 18.2551C19.1931 19.1867 18.1066 20.5109 17.4652 22.0601C16.8237 23.6093 16.6561 25.3139 16.9835 26.9584C17.3109 28.6028 18.1187 30.1133 19.3046 31.2986C20.4906 32.4839 22.0014 33.291 23.646 33.6176C25.2907 33.9442 26.9952 33.7757 28.5441 33.1334C30.093 32.4912 31.4166 31.404 32.3475 30.0094C33.2785 28.6149 33.7749 26.9755 33.7741 25.2988C33.7741 24.1858 33.5548 23.0837 33.1287 22.0555C32.7027 21.0273 32.0782 20.0931 31.291 19.3062C30.5038 18.5194 29.5693 17.8954 28.5408 17.4699C27.5124 17.0444 26.4102 16.8256 25.2972 16.8262Z" fill="#FF9933"/>
</svg>
