<svg id="Layer_1" data-name="Layer 1" xmlns="http://www.w3.org/2000/svg" viewBox="0 0 312.97 159.65"><defs><style>.cls-1,.cls-2{fill:#099;}.cls-1{stroke:#099;stroke-miterlimit:10;}.cls-3{fill:#f93;}</style></defs><path class="cls-1" d="M139.4,69a15.59,15.59,0,0,1,5.9-6.22,16.32,16.32,0,0,1,8.43-2.21,15.3,15.3,0,0,1,7.86,2,12.87,12.87,0,0,1,4.95,4.9V61.12h5.81v51h-5.81V89.34a13.53,13.53,0,0,1-5,4.93,15.35,15.35,0,0,1-8,2A15.52,15.52,0,0,1,145.27,94a15.87,15.87,0,0,1-5.87-6.37,19.77,19.77,0,0,1-2.15-9.35A19.36,19.36,0,0,1,139.4,69ZM165,71.54a11.08,11.08,0,0,0-4.26-4.45,12,12,0,0,0-11.77,0,10.94,10.94,0,0,0-4.23,4.42,14.07,14.07,0,0,0-1.58,6.81,14.43,14.43,0,0,0,1.58,6.92,11.17,11.17,0,0,0,4.23,4.48,11.45,11.45,0,0,0,5.87,1.55,11.61,11.61,0,0,0,5.9-1.55A11.1,11.1,0,0,0,165,85.21a14.28,14.28,0,0,0,1.58-6.85A14.11,14.11,0,0,0,165,71.54Z"/><path class="cls-1" d="M178.57,69a15.61,15.61,0,0,1,5.91-6.22,16.2,16.2,0,0,1,8.36-2.21,15.39,15.39,0,0,1,7.89,2,13.13,13.13,0,0,1,5,4.93V61.12h5.81v34.6h-5.81V89.28a13.6,13.6,0,0,1-5.08,5,15.25,15.25,0,0,1-7.86,2A15.69,15.69,0,0,1,184.44,94a15.94,15.94,0,0,1-5.87-6.37,19.89,19.89,0,0,1-2.14-9.35A19.47,19.47,0,0,1,178.57,69Zm25.57,2.56a11.08,11.08,0,0,0-4.26-4.45,12,12,0,0,0-11.77,0,10.94,10.94,0,0,0-4.23,4.42,14,14,0,0,0-1.58,6.81,14.31,14.31,0,0,0,1.58,6.92,11.17,11.17,0,0,0,4.23,4.48A11.42,11.42,0,0,0,194,91.24a11.63,11.63,0,0,0,5.9-1.55,11.1,11.1,0,0,0,4.26-4.48,14.28,14.28,0,0,0,1.58-6.85A14.11,14.11,0,0,0,204.14,71.54Z"/><path class="cls-1" d="M234.75,65.86h-7.26V95.72h-5.75V65.86h-4.48V61.12h4.48V58.66q0-5.8,3-8.49t9.63-2.68v4.79q-3.8,0-5.34,1.49t-1.54,4.89v2.46h7.26Z"/><path class="cls-1" d="M240.08,69a15.65,15.65,0,0,1,5.9-6.22,16.26,16.26,0,0,1,8.37-2.21,15.39,15.39,0,0,1,7.89,2,13.13,13.13,0,0,1,5,4.93V61.12H273v34.6h-5.81V89.28a13.6,13.6,0,0,1-5.08,5,15.3,15.3,0,0,1-7.86,2A15.64,15.64,0,0,1,246,94a15.94,15.94,0,0,1-5.87-6.37,19.89,19.89,0,0,1-2.15-9.35A19.47,19.47,0,0,1,240.08,69Zm25.57,2.56a11.08,11.08,0,0,0-4.26-4.45,12.07,12.07,0,0,0-11.78,0,11.07,11.07,0,0,0-4.23,4.42,14.06,14.06,0,0,0-1.57,6.81,14.43,14.43,0,0,0,1.57,6.92,11.3,11.3,0,0,0,4.23,4.48,11.48,11.48,0,0,0,5.88,1.55,11.63,11.63,0,0,0,5.9-1.55,11.1,11.1,0,0,0,4.26-4.48,14.28,14.28,0,0,0,1.58-6.85A14.11,14.11,0,0,0,265.65,71.54Z"/><path class="cls-2" d="M93.65,95.72a2.05,2.05,0,0,1-1.47-.61L64.5,67.44a2.08,2.08,0,0,1,2.94-2.94L95.11,92.18a2.07,2.07,0,0,1,0,2.93A2,2,0,0,1,93.65,95.72Z"/><path class="cls-3" d="M99.75,44.07A15.8,15.8,0,1,1,84,59.86,15.82,15.82,0,0,1,99.75,44.07m0-4.15a19.95,19.95,0,1,0,20,19.94,19.94,19.94,0,0,0-20-19.94Z"/><path class="cls-3" d="M99.75,84A15.8,15.8,0,1,1,84,99.75,15.82,15.82,0,0,1,99.75,84m0-4.15a19.95,19.95,0,1,0,20,19.94,19.94,19.94,0,0,0-20-19.94Z"/><path class="cls-3" d="M59.86,44.07A15.8,15.8,0,1,1,44.07,59.86,15.82,15.82,0,0,1,59.86,44.07m0-4.15a19.95,19.95,0,1,0,20,19.94,19.94,19.94,0,0,0-20-19.94Z"/><path class="cls-3" d="M59.86,84A15.8,15.8,0,1,1,44.07,99.75,15.82,15.82,0,0,1,59.86,84m0-4.15a19.95,19.95,0,1,0,20,19.94,19.94,19.94,0,0,0-20-19.94Z"/><path class="cls-2" d="M66,95.72A2.07,2.07,0,0,1,64.39,95a2.16,2.16,0,0,1,.2-2.9L92.07,64.62a2.19,2.19,0,0,1,2.82-.31,2.07,2.07,0,0,1,.22,3.13L67.44,95.11A2.07,2.07,0,0,1,66,95.72Z"/></svg>